<?xml version="1.0" encoding="utf-8"?>
<!-- Generator: Adobe Illustrator 19.2.1, SVG Export Plug-In . SVG Version: 6.00 Build 0)  -->
<svg version="1.1" id="Réteg_1" xmlns="http://www.w3.org/2000/svg" xmlns:xlink="http://www.w3.org/1999/xlink" x="0px" y="0px"
	 viewBox="0 0 100 50" style="enable-background:new 0 0 100 50;" xml:space="preserve">
<style type="text/css">
	.st0{fill:#37474F;}
</style>
<g>
	<path class="st0" d="M10.9,20.8c-0.3,0.8-2.1,5.8-2.3,6.5c0,0.2-0.1,0.6-0.1,0.7c0,0.5,0.4,0.7,1.1,0.7h1.6c0.2,0,0.3,0.1,0.3,0.2
		v0.8c0,0.2-0.1,0.3-0.3,0.3c-0.5,0-1.8-0.1-3.8-0.1c-2.4,0-3.1,0.1-3.6,0.1c-0.2,0-0.2-0.1-0.2-0.3V29c0-0.2,0.1-0.2,0.3-0.2h1.2
		c1,0,1.5-0.5,1.9-1.5c0.2-0.5,2.6-6.6,3.6-9.3c0.2-0.7,2.9-7.8,3.2-8.6c0.1-0.3,0.3-0.8,0-1.1c-0.1-0.1-0.2-0.3-0.2-0.4
		c0-0.1,0.1-0.2,0.3-0.3c0.9-0.2,2.4-1.2,2.7-1.7c0.2-0.2,0.3-0.3,0.4-0.3c0.2,0,0.3,0.2,0.4,0.6c0.6,2.1,3.2,9.5,3.8,11.6
		c0.8,2.6,2.9,8.7,3.4,9.7c0.6,1.1,1.4,1.5,2.2,1.5h1.1c0.2,0,0.3,0.1,0.3,0.2v0.8c0,0.2-0.1,0.2-0.3,0.2c-0.6,0-1.3-0.1-4-0.1
		c-2.7,0-3.9,0.1-4.7,0.1c-0.2,0-0.3-0.1-0.3-0.3V29c0-0.2,0.1-0.2,0.3-0.2h0.8c0.9,0,1.2-0.3,1-1.3c-0.3-1.2-1.6-5.4-2.1-6.7H10.9z
		 M18.6,19.6c-0.3-1-3-9.2-3.1-9.7c-0.1-0.2-0.2-0.5-0.3-0.5c-0.1,0-0.3,0.2-0.4,0.5c-0.2,0.4-3.3,8.9-3.5,9.7H18.6z"/>
	<path class="st0" d="M30.4,28.4c0-0.6,0.4-1.8,2-1.8c1,0,1.8,0.8,1.8,2c0,1.1-0.8,1.8-1.8,1.8C31.8,30.3,30.4,29.9,30.4,28.4z"/>
	<path class="st0" d="M38.6,29.9c-0.3,0-0.6,0-0.6-0.3c0-0.2,0-0.5,0.2-0.6c1.7-2,15.4-21,15.6-21.4h-8.9c-0.5,0-0.9,0.2-1.3,0.5
		c-0.7,0.6-3.4,3.9-4,4.9c-0.1,0.1-0.2,0.1-0.3,0l-0.4-0.2c-0.1-0.1-0.1-0.1-0.1-0.3l2.1-5.9c0.1-0.3,0.2-0.4,0.4-0.4
		c0.1,0,0.4,0,0.7,0.1c1.6,0.2,6.2,0.2,8.9,0.2c1.2,0,2.4-0.1,3.6-0.1c1.2-0.1,2.3-0.1,3.5-0.1c0.5,0,0.6,0.4,0.2,0.8
		c-0.6,0.7-15.1,20.6-15.8,21.6h11.6c1.2-0.8,4.2-4.3,4.6-4.9c0.1-0.1,0.2-0.1,0.3-0.1l0.5,0.3c0.1,0.1,0.1,0.2,0.1,0.3
		c-0.4,0.8-2.1,4.8-2.3,5.7c-0.1,0.2-0.3,0.4-0.4,0.4c-0.1,0-0.4-0.1-0.8-0.1c-1.8-0.2-7.1-0.4-10.2-0.4H38.6z"/>
	<path class="st0" d="M62,28.4c0-0.6,0.4-1.8,2-1.8c1,0,1.8,0.8,1.8,2c0,1.1-0.8,1.8-1.8,1.8C63.3,30.3,62,29.9,62,28.4z"/>
	<path class="st0" d="M70.2,29.9c-0.3,0-0.6,0-0.6-0.3c0-0.2,0-0.5,0.2-0.6c1.7-2,15.4-21,15.6-21.4h-8.9c-0.5,0-0.9,0.2-1.3,0.5
		c-0.7,0.6-3.4,3.9-4,4.9c-0.1,0.1-0.2,0.1-0.3,0l-0.4-0.2c-0.1-0.1-0.1-0.1-0.1-0.3l2.1-5.9c0.1-0.3,0.2-0.4,0.4-0.4
		c0.1,0,0.4,0,0.7,0.1c1.6,0.2,6.2,0.2,8.9,0.2c1.2,0,2.4-0.1,3.6-0.1c1.2-0.1,2.3-0.1,3.5-0.1c0.5,0,0.6,0.4,0.2,0.8
		C89,7.9,74.5,27.7,73.9,28.7h11.6c1.2-0.8,4.2-4.3,4.6-4.9c0.1-0.1,0.2-0.1,0.3-0.1l0.5,0.3c0.1,0.1,0.1,0.2,0.1,0.3
		c-0.4,0.8-2.1,4.8-2.3,5.7c-0.1,0.2-0.3,0.4-0.4,0.4c-0.1,0-0.4-0.1-0.8-0.1c-1.8-0.2-7.1-0.4-10.2-0.4H70.2z"/>
	<path class="st0" d="M93.5,28.4c0-0.6,0.4-1.8,2-1.8c1,0,1.8,0.8,1.8,2c0,1.1-0.8,1.8-1.8,1.8C94.9,30.3,93.5,29.9,93.5,28.4z"/>
</g>
<g>
	<path class="st0" d="M11,42.7c0-0.5-0.1-0.6-0.5-0.6H9.9c-0.1,0-0.1,0-0.1-0.1v-0.3c0-0.1,0-0.1,0.1-0.1c0.2,0,0.8,0,1.7,0
		c0.9,0,1.4,0,1.5,0c0.1,0,0.1,0,0.1,0.1V42c0,0.1,0,0.1-0.1,0.1h-0.5c-0.2,0-0.4,0.1-0.4,0.5v1.7c0,0.2,0.1,0.3,0.1,0.4
		c0,0.1-0.1,0.2-0.2,0.2c-1.1,0.5-2.1,0.8-3.5,0.8c-1.2,0-2.7-0.4-3.6-1.5c-0.8-0.9-1.2-2-1.2-3.6c0-1.2,0.5-2.4,1.5-3.3
		c0.9-0.8,2.1-1.2,3.7-1.2c1.1,0,2.1,0.4,2.6,0.8c0.1,0.1,0.2,0.1,0.3,0l0.2-0.2c0.1-0.1,0.1-0.1,0.2-0.1c0.1,0,0.1,0.1,0.1,0.2
		l0,2.5c0,0.1,0,0.1-0.1,0.1l-0.2,0c-0.1,0-0.1,0-0.1-0.1c-0.1-0.4-0.3-1-0.8-1.5c-0.4-0.5-1.2-1.1-2.4-1.1c-0.9,0-1.7,0.2-2.5,1.1
		c-0.7,0.7-1.1,1.8-1.1,3c0,1.5,0.4,2.9,1.2,3.6c0.6,0.6,1.4,0.9,2.3,0.9c1,0,1.7-0.2,2.1-0.4c0.3-0.2,0.4-0.5,0.4-1.1V42.7z"/>
	<path class="st0" d="M15.4,39.6c0-1,0-1.8,0-2.2c0-0.4-0.2-0.7-0.5-0.7h-0.5c-0.1,0-0.1,0-0.1-0.1v-0.3c0-0.1,0-0.1,0.1-0.1
		c0.1,0,0.5,0,1.6,0c0.7,0,1.9,0,2.2,0c1.1,0,1.9,0.3,2.4,0.8c0.4,0.4,0.7,1,0.7,1.5c0,1.6-0.7,2.2-2.4,2.6v0
		c0.3,0.1,0.5,0.4,0.6,0.5c0.2,0.2,1.1,1.5,1.2,1.7c0.1,0.1,0.9,1.3,1.1,1.5c0.3,0.2,0.6,0.2,0.9,0.2c0.1,0,0.1,0.1,0.1,0.1v0.3
		c0,0.1,0,0.1-0.1,0.1c-0.1,0-0.4,0-1,0c-0.4,0-0.9,0-1.1,0c-0.1-0.1-0.4-0.6-0.5-0.7c-0.1-0.2-0.8-1.4-0.9-1.5
		c-0.1-0.1-0.7-1-0.8-1.2c-0.3-0.4-0.6-0.8-1.4-0.8c-0.1,0-0.2,0-0.4,0v0.7c0,0.8,0,2.2,0,2.4c0,0.3,0.1,0.5,0.3,0.5h0.8
		c0.1,0,0.1,0,0.1,0.1v0.3c0,0.1,0,0.1-0.1,0.1c-0.1,0-0.5,0-1.7,0c-1.2,0-1.5,0-1.6,0c-0.1,0-0.1,0-0.1-0.1v-0.3
		c0-0.1,0-0.1,0.1-0.1h0.5c0.3,0,0.5-0.1,0.5-0.4c0-1.3,0-2.5,0-3.7V39.6z M16.6,40.9c0.2,0,0.3,0.1,0.6,0.1c2.4,0,2.8-1.6,2.8-2.2
		c0-0.6-0.3-1.2-0.6-1.5c-0.5-0.4-1.1-0.6-2.2-0.6c-0.2,0-0.3,0-0.4,0.1c-0.1,0.1-0.2,0.2-0.2,0.4V40.9z"/>
	<path class="st0" d="M25.1,44.9c-0.9-0.6-1.9-2-1.9-3.9c0-0.8,0.2-2,1.2-3.2c1.1-1.4,2.4-1.7,3.5-1.7c0.8,0,1.9,0.2,2.9,1
		c0.9,0.8,1.8,2.1,1.8,3.9c0,0.9-0.3,1.9-1,2.8c-0.8,1.1-1.9,1.8-3.7,1.8C27.2,45.7,26.1,45.5,25.1,44.9z M31.3,41.1
		c0-2.8-2-4.5-3.5-4.5c-0.2,0-1.1-0.2-2.1,0.8c-0.9,0.8-1.3,2.1-1.3,3.2c0,3.4,2.4,4.6,3.5,4.6C30.8,45.2,31.3,42.3,31.3,41.1z"/>
	<path class="st0" d="M36.4,45.5c-0.9-0.4-1.3-0.9-1.5-1.7c-0.2-0.6-0.2-1.5-0.2-3.2v-3.1c0-0.5-0.1-0.7-0.5-0.7h-0.6
		c-0.1,0-0.1,0-0.1-0.1v-0.3c0-0.1,0-0.1,0.1-0.1c0.1,0,0.8,0,1.8,0s1.6,0,1.8,0c0.1,0,0.1,0,0.1,0.1v0.3c0,0.1,0,0.1-0.1,0.1h-0.7
		c-0.4,0-0.6,0.2-0.6,0.5c0,0.1,0,1,0,1.7v0.9c0,0.7,0.1,2.3,0.1,2.8c0,0.6,0.1,1.2,0.4,1.7c0.5,0.7,1.3,0.9,2.1,0.9
		c0.7,0,1.5-0.2,1.9-0.7c0.5-0.5,0.7-1.3,0.7-2.3v-2.8c0-1,0-1.7-0.1-2.1c0-0.3-0.2-0.6-0.6-0.6h-0.6c-0.1,0-0.1,0-0.1-0.1v-0.3
		c0-0.1,0-0.1,0.1-0.1c0.1,0,0.7,0,1.6,0c0.9,0,1.3,0,1.4,0c0.1,0,0.1,0.1,0.1,0.1v0.3c0,0.1,0,0.1-0.1,0.1h-0.5
		c-0.5,0-0.5,0.4-0.6,0.5c0,0.1,0,2,0,2.2c0,0.2,0,2.5-0.1,3c-0.1,1.1-0.4,1.9-1.1,2.5c-0.5,0.5-1.3,0.8-2.4,0.8
		C37.4,45.7,36.8,45.6,36.4,45.5z"/>
	<path class="st0" d="M45.9,42.1c0,0.6,0,2.4,0,2.6c0,0.3,0.2,0.4,0.4,0.4h0.8c0.1,0,0.1,0,0.1,0.1v0.3c0,0.1,0,0.1-0.1,0.1
		c-0.2,0-0.6,0-1.8,0c-1.1,0-1.7,0-1.8,0c-0.1,0-0.1,0-0.1-0.1v-0.3c0-0.1,0-0.1,0.1-0.1h0.6c0.4,0,0.5-0.1,0.6-0.4
		c0-0.1,0.1-2.2,0.1-3.7v-1.5c0-0.9,0-2.3,0-2.4c0-0.3-0.2-0.3-0.5-0.3h-0.7c-0.1,0-0.1,0-0.1-0.1v-0.3c0-0.1,0-0.1,0.1-0.1
		c0.1,0,0.6,0,1.8,0c0.2,0,1,0,1.4,0c1.5,0,2.2,0.1,2.9,0.6c0.6,0.4,1,1.1,1,1.9c0,1.6-1.2,2.7-3.3,2.7c-0.5,0-1,0-1.4-0.1V42.1z
		 M45.9,40.9c0.3,0.1,0.7,0.1,1.2,0.1c0.8,0,1.5-0.4,1.8-0.9c0.3-0.4,0.3-0.9,0.3-1.3c0-1.7-1.6-2.2-2.4-2.2c-0.2,0-0.8,0-1,0.1
		V40.9z"/>
	<path class="st0" d="M62.2,42.7c0-0.5-0.1-0.6-0.5-0.6h-0.5C61,42.1,61,42,61,42v-0.3c0-0.1,0-0.1,0.1-0.1c0.2,0,0.8,0,1.7,0
		c0.9,0,1.4,0,1.5,0c0.1,0,0.1,0,0.1,0.1V42c0,0.1,0,0.1-0.1,0.1h-0.5c-0.2,0-0.4,0.1-0.4,0.5v1.7c0,0.2,0.1,0.3,0.1,0.4
		c0,0.1-0.1,0.2-0.2,0.2c-1.1,0.5-2.1,0.8-3.5,0.8c-1.2,0-2.7-0.4-3.6-1.5c-0.8-0.9-1.2-2-1.2-3.6c0-1.2,0.5-2.4,1.5-3.3
		c0.9-0.8,2.1-1.2,3.7-1.2c1.1,0,2.1,0.4,2.6,0.8c0.1,0.1,0.2,0.1,0.3,0l0.2-0.2c0.1-0.1,0.1-0.1,0.2-0.1c0.1,0,0.1,0.1,0.1,0.2
		l0,2.5c0,0.1,0,0.1-0.1,0.1l-0.2,0c-0.1,0-0.1,0-0.1-0.1c-0.1-0.4-0.3-1-0.8-1.5c-0.4-0.5-1.2-1.1-2.4-1.1c-0.9,0-1.7,0.2-2.5,1.1
		c-0.7,0.7-1.1,1.8-1.1,3c0,1.5,0.4,2.9,1.2,3.6c0.6,0.6,1.4,0.9,2.3,0.9c1,0,1.7-0.2,2.1-0.4c0.3-0.2,0.4-0.5,0.4-1.1V42.7z"/>
	<path class="st0" d="M69.7,42.2c0-1-0.2-1.2-0.4-1.4c-0.2-0.2-0.5-0.2-0.8-0.2c-0.3,0-0.9,0.2-1.2,0.8c-0.2,0.3-0.2,0.5-0.2,0.9
		v2.6c0,0.2,0.1,0.3,0.3,0.3h0.5c0.1,0,0.1,0,0.1,0.1v0.2c0,0.1,0,0.1-0.1,0.1c-0.1,0-0.5,0-1.2,0c-0.7,0-1.1,0-1.2,0
		c-0.1,0-0.1,0-0.1-0.1v-0.2c0-0.1,0-0.1,0.2-0.1h0.4c0.1,0,0.2-0.1,0.2-0.3c0-0.2,0-0.5,0-0.7v-2.3c0-0.3-0.1-0.5-0.4-0.7L65.5,41
		c-0.1,0-0.1-0.1-0.1-0.1v-0.1c0,0,0.1-0.1,0.1-0.1l1.1-0.6c0.1-0.1,0.2-0.1,0.2-0.1c0.1,0,0.1,0.1,0.1,0.2l0.1,0.8h0
		c0.4-0.5,1.2-1,1.9-1c0.7,0,1.2,0.4,1.5,1h0.1c0.4-0.5,1.1-1,1.9-1c0.5,0,0.9,0.1,1.2,0.4c0.3,0.3,0.6,0.6,0.6,1.6v2.9
		c0,0.2,0.1,0.3,0.3,0.3h0.4c0.1,0,0.1,0,0.1,0.1v0.2c0,0.1,0,0.1-0.1,0.1c-0.1,0-0.5,0-1.1,0c-0.7,0-1.1,0-1.2,0
		c-0.1,0-0.1,0-0.1-0.1v-0.2c0-0.1,0-0.1,0.2-0.1H73c0.1,0,0.2-0.1,0.3-0.2c0-0.3,0-0.8,0-1.1v-1.9c0-0.4-0.1-0.8-0.4-1
		c-0.2-0.2-0.6-0.3-1-0.3c-0.4,0-0.9,0.3-1.1,0.7c-0.2,0.4-0.2,0.7-0.2,1.3v2.2c0,0.2,0.1,0.3,0.3,0.3h0.4c0.1,0,0.1,0,0.1,0.1v0.2
		c0,0.1,0,0.1-0.1,0.1c-0.1,0-0.4,0-1.2,0c-0.7,0-1.1,0-1.2,0c-0.1,0-0.1,0-0.1-0.1v-0.2c0-0.1,0-0.1,0.1-0.1h0.4
		c0.2,0,0.3-0.1,0.3-0.2V42.2z"/>
	<path class="st0" d="M76.2,38.5c0-0.9-0.1-1.1-0.6-1.2l-0.1,0c-0.1,0-0.2-0.1-0.2-0.1v-0.1c0,0,0-0.1,0.1-0.1
		c0.4-0.2,1.1-0.5,1.4-0.7c0.1-0.1,0.2-0.1,0.3-0.1c0.1,0,0.1,0.1,0.1,0.2c0,0.1,0,1.6,0,2.7v1.5c0.4-0.4,1.2-0.7,1.8-0.7
		c1.1,0,2.4,0.9,2.4,2.8c0,1.5-1.2,3-2.7,3c-0.7,0-1.2-0.2-1.5-0.3l-0.5,0.3c-0.1,0-0.1,0.1-0.2,0l-0.2,0c-0.1,0-0.1,0-0.1-0.1
		c0-0.2,0-1.3,0-2.2V38.5z M77.2,42.7c0,1.1,0,1.5,0.2,1.9c0.1,0.3,0.7,0.7,1.2,0.7c0.8,0,1.7-0.5,1.7-2.2c0-1.3-0.7-2.5-1.9-2.5
		c-0.5,0-0.9,0.2-1.2,0.5V42.7z"/>
	<path class="st0" d="M83.6,40.4c0-0.8,0-2.6,0-2.8c0-0.7-0.1-0.8-0.6-0.8h-0.6c-0.1,0-0.1,0-0.1-0.1v-0.3c0-0.1,0-0.1,0.1-0.1
		c0.3,0,0.7,0,1.8,0c1,0,1.5,0,1.7,0c0.1,0,0.1,0,0.1,0.1v0.3c0,0.1,0,0.1-0.1,0.1h-0.7c-0.4,0-0.5,0.2-0.5,0.7c0,0.2,0,1.9,0,2.6
		v0.2c0,0.1,0,0.1,0.2,0.1h4.8c0.2,0,0.3,0,0.3-0.2v-0.1c0-0.7,0-2.5,0-2.7c0-0.4-0.1-0.7-0.4-0.7h-0.7c-0.1,0-0.1,0-0.1-0.1v-0.3
		c0-0.1,0-0.1,0.1-0.1c0.3,0,0.8,0,1.7,0c0.9,0,1.4,0,1.7,0c0.1,0,0.1,0,0.1,0.1v0.3c0,0.1,0,0.1-0.1,0.1h-0.6
		c-0.4,0-0.4,0.2-0.4,0.7c0,0.2,0,2.4,0,2.9v0.4c0,0.4,0,2.9,0,3.6c0,0.5,0.1,0.7,0.5,0.7h0.6c0.1,0,0.1,0,0.1,0.1v0.3
		c0,0.1,0,0.1-0.1,0.1c-0.2,0-0.7,0-1.6,0c-1.1,0-1.5,0-1.9,0c-0.1,0-0.1,0-0.1-0.1v-0.3c0-0.1,0-0.1,0.1-0.1h0.8
		c0.3,0,0.4-0.2,0.4-0.6c0-0.6,0-2.7,0-3.2v-0.2C90,41,90,41,89.7,41H85c-0.1,0-0.2,0-0.2,0.1v0.3c0,0.4,0,2.4,0,3.3
		c0,0.3,0.1,0.4,0.4,0.4h0.6c0.1,0,0.1,0,0.1,0.1v0.3c0,0.1,0,0.1-0.1,0.1c-0.2,0-0.7,0-1.6,0c-1.1,0-1.5,0-1.8,0
		c-0.1,0-0.1,0-0.1-0.1v-0.3c0-0.1,0-0.1,0.1-0.1h0.8c0.3,0,0.4-0.3,0.4-0.6c0-0.6,0-3.1,0-3.5V40.4z"/>
</g>
</svg>
