<?xml version="1.0" encoding="utf-8"?>
<!-- Generator: Adobe Illustrator 19.2.1, SVG Export Plug-In . SVG Version: 6.00 Build 0)  -->
<svg version="1.1" id="Réteg_1" xmlns="http://www.w3.org/2000/svg" xmlns:xlink="http://www.w3.org/1999/xlink" x="0px" y="0px"
	 viewBox="0 0 500 500" style="enable-background:new 0 0 500 500;" xml:space="preserve">
<style type="text/css">
	.st0{opacity:0.2;fill:#FFFFFF;}
	.st1{fill:##37474F;}
	.st2{fill:#FFFFFF;}
	#GROUP_GmbH_no_stroke{fill:#FFFFFF;}
	#azz_stroke{fill:#FFFFFF;}
</style>
<path id="globe" class="st0" d="M424.2,72.1C375.8,25.3,313.3,2,250.9,2c0,0,0,0,0,0c0,0,0,0,0,0c0,0,0,0,0,0
	c-65.1,0-130.1,25.3-179,75.7c-95.8,98.7-93.3,256.3,5.5,352c48.4,46.8,110.9,70.1,173.4,70.1c0,0,0,0,0,0c0,0,0,0,0,0c0,0,0,0,0,0
	c65.1,0,130.1-25.3,179-75.7C525.5,325.4,523.1,167.8,424.2,72.1z M259.1,159.9c34.7-0.2,64.5-1.7,89.8-4c5.8,27,9.1,56.3,9.6,86.7
	h-99.3V159.9z M259.1,143.3V19.4c9.2,1.7,18.3,6.1,27.3,13.2c13.3,10.6,25.5,26.4,36.2,47.2c9.1,17.7,16.6,37.9,22.3,59.8
	C320.6,141.6,292.1,143.1,259.1,143.3z M242.5,19.4v123.9c-33-0.2-61.5-1.6-85.8-3.7c5.2-19.8,11.8-38.2,19.8-54.6
	C194.7,47.1,218.4,23.8,242.5,19.4z M242.5,159.9v82.7h-99.4c0.5-30.3,3.8-59.6,9.7-86.7C178,158.1,207.8,159.7,242.5,159.9z
	 M126.5,242.6H18.3c1.3-37.1,11.3-72.7,29-104.5c14.3,4.3,42.9,11.3,88.8,16.2C130.3,182.6,127,212.5,126.5,242.6z M126.5,259.2
	c0.5,30.1,3.7,60.1,9.6,88.3c-45.9,4.9-74.6,12-88.8,16.2c-17.7-31.7-27.7-67.3-29-104.5H126.5z M143.1,259.2h99.3V342
	c-34.7,0.2-64.5,1.7-89.8,4C146.9,318.9,143.7,289.6,143.1,259.2z M242.5,358.6v123.9c-9.2-1.6-18.4-6-27.3-13.2
	c-13.3-10.6-25.5-26.5-36.2-47.2c-9.1-17.7-16.6-37.9-22.3-59.8C181,360.2,209.5,358.8,242.5,358.6z M259.1,482.5V358.6
	c33,0.2,61.5,1.6,85.8,3.7c-5.2,19.8-11.8,38.2-19.8,54.6C306.8,454.7,283.2,478,259.1,482.5z M259.1,342v-82.7h99.4
	c-0.5,30.3-3.8,59.6-9.7,86.7C323.5,343.7,293.8,342.2,259.1,342z M375.1,259.2h108.2c-1.3,37.1-11.3,72.7-29,104.5
	c-14.3-4.3-42.9-11.3-88.8-16.2C371.3,319.3,374.6,289.3,375.1,259.2z M375,242.6c-0.5-30.1-3.7-60.1-9.6-88.3
	c45.9-4.9,74.6-12,88.8-16.2c17.7,31.7,27.7,67.3,29,104.5H375z M412.7,84.1c12.4,12,23.3,25.2,32.6,39.3
	c-14.8,4.1-42.1,10.2-83.7,14.6c-6.1-23.8-14.1-46.1-24.3-65.8c-10.5-20.4-22.4-36.3-35-47.8C343.6,33.6,381.6,54,412.7,84.1z
	 M83.7,89.3c22.3-23,48.5-40.8,77.9-53c12.3-5.1,24.8-9.1,37.7-12c-13.8,12.5-26.6,30.3-37.8,53.4c-8.9,18.3-16,38.6-21.5,60.2
	c-41.5-4.4-68.8-10.5-83.6-14.6C64.3,111.3,73.5,99.9,83.7,89.3z M88.9,417.8c-12.4-12-23.3-25.2-32.6-39.3
	c14.8-4.1,42.1-10.2,83.7-14.6c6.1,23.8,14.1,46.2,24.3,65.8c10.5,20.4,22.4,36.3,35,47.8C158,468.2,119.9,447.8,88.9,417.8z
	 M417.8,412.6c-22.3,23-48.5,40.8-77.9,53c-12.3,5.1-24.8,9.1-37.7,12c13.8-12.5,26.6-30.3,37.8-53.4c8.9-18.3,16-38.6,21.5-60.2
	c41.5,4.4,68.8,10.5,83.6,14.6C437.3,390.6,428.1,402,417.8,412.6z"/>
<g id="kezrazas">
	<g id="balkezegesz">
		<path id="balkez" class="st1" d="M263.4,356.6c-6.8,0-15.8-5.2-35.9-17.9c-29.1-18.3-80.3-58.8-80.7-59.1c-0.6-0.5-1-1.1-1.1-1.8
			c-0.1-0.4-2.3-10.7,0.8-27.8c3.1-17.2,16.8-51.6,16.9-52c0.4-1,1.2-1.7,2.3-1.9c1-0.2,2.1,0,2.9,0.8c0.1,0.1,6.9,6,19.6,5.7
			c5.8-0.1,12-1.5,18.4-4c24-9.5,38.5-11.2,45-11.3c2.1,0,3.2,0.1,3.3,0.1c10.7,1.2,19.7,12.2,30.1,25c3.6,4.4,8.1,9.9,12.7,14.9
			l3.4,3.7c20.2,21.6,36.2,38.6,40.3,46.1c2.6,4.8,2.4,11.3-0.6,16.4c-3,5.1-8.1,8.1-14,8.3c-0.5,0-1.1,0-1.6,0
			c-0.4,0-0.8-0.1-1.3-0.2c3.2,4.7,4.7,10.1,1,16.5c-2.9,4.9-9,10.3-15.5,10.4c-1.3,0-2.6-0.1-3.9-0.5c-0.6-0.2-1.7-0.6-3.7-1.9
			c0.4,2.3,0.1,4.6-0.9,6.9c-2.4,5.7-8.9,10.1-15.1,10.3c-0.9,0-1.7,0-2.6-0.2c-1.5-0.3-3.3-1-5.7-2.2c0,0.1,0,0.1,0,0.2
			c0.3,3.6-1.1,7.2-4.4,10.8c-3,3.3-5.9,4.8-9.5,4.9h0C263.6,356.6,263.5,356.6,263.4,356.6z M151.7,275.3
			c7.4,5.8,52.7,41.3,79.2,58c16.6,10.5,27.2,16.9,32.5,16.9c0.1,0,0.1,0,0.2,0c1.4,0,2.8-0.5,4.9-2.8c2-2.2,2.9-4.2,2.8-5.9
			c-0.3-3.3-4.4-7-10.4-11.5c-4.5-3.2-7.9-5.8-7.9-5.8c-1.4-1.1-1.7-3.1-0.6-4.5c1.1-1.4,3.1-1.7,4.5-0.6l3.1,2.3
			c1.7,1.2,3.2,2.4,4.7,3.5c9.5,6.8,17,11.2,19.8,11.8c0.4,0.1,0.8,0.1,1.2,0.1c3.6-0.1,7.9-3,9.3-6.4c1.1-2.5,0.6-4.9-1.5-7.2
			c-8.4-9.2-24.6-23.3-24.7-23.4c-1.3-1.2-1.5-3.2-0.3-4.5c1.2-1.4,3.2-1.5,4.5-0.3c14.4,12.4,31.2,25.9,34.6,27
			c0.6,0.2,1.1,0.3,1.8,0.2c3.8-0.1,8.1-3.8,10.1-7.3c3.5-5.9-0.4-10.5-10.1-19.4c-1.8-1.7-3.4-3.2-5.1-4.8
			c-0.8-0.8-1.7-1.6-2.6-2.4c-6.9-5.6-12.8-11.3-12.9-11.4c-1.2-1.2-1.3-3.2-0.2-4.5c1.2-1.3,3.1-1.4,4.5-0.3
			c0.2,0.1,7.2,6,12.9,11.5c12.7,10.3,17.9,11.7,19.6,11.8c5.6,0.4,8.5-3,9.7-5c1.9-3.3,2.1-7.3,0.5-10.2
			c-3.6-6.7-20.1-24.3-39.2-44.6l-3.6-3.8c-4.7-5-8.9-10.2-13-15.2c-9.5-11.7-17.8-21.8-25.9-22.7c-0.2,0-0.9-0.1-2.3,0
			c-4.9,0.1-18.8,1.4-42.8,10.9c-7.2,2.8-14.1,4.3-20.6,4.5c-9.7,0.2-16.5-2.5-20.4-4.8c-3.3,8.6-12.7,34-15.1,47
			C150.4,263.5,151.2,272.2,151.7,275.3z"/>
		<path id="balkezktoltes" class="st2" d="M151.7,275.3c7.4,5.8,52.7,41.3,79.2,58c16.6,10.5,27.2,16.9,32.5,16.9c0.1,0,0.1,0,0.2,0
			c1.4,0,2.8-0.5,4.9-2.8c2-2.2,2.9-4.2,2.8-5.9c-0.3-3.3-4.4-7-10.4-11.5c-4.5-3.2-7.9-5.8-7.9-5.8c-1.4-1.1-1.7-3.1-0.6-4.5
			c1.1-1.4,3.1-1.7,4.5-0.6l3.1,2.3c1.7,1.2,3.2,2.4,4.7,3.5c9.5,6.8,17,11.2,19.8,11.8c0.4,0.1,0.8,0.1,1.2,0.1
			c3.6-0.1,7.9-3,9.3-6.4c1.1-2.5,0.6-4.9-1.5-7.2c-8.4-9.2-24.6-23.3-24.7-23.4c-1.3-1.2-1.5-3.2-0.3-4.5c1.2-1.4,3.2-1.5,4.5-0.3
			c14.4,12.4,31.2,25.9,34.6,27c0.6,0.2,1.1,0.3,1.8,0.2c3.8-0.1,8.1-3.8,10.1-7.3c3.5-5.9-0.4-10.5-10.1-19.4
			c-1.8-1.7-3.4-3.2-5.1-4.8c-0.8-0.8-1.7-1.6-2.6-2.4c-6.9-5.6-12.8-11.3-12.9-11.4c-1.2-1.2-1.3-3.2-0.2-4.5
			c1.2-1.3,3.1-1.4,4.5-0.3c0.2,0.1,7.2,6,12.9,11.5c12.7,10.3,17.9,11.7,19.6,11.8c5.6,0.4,8.5-3,9.7-5c1.9-3.3,2.1-7.3,0.5-10.2
			c-3.6-6.7-20.1-24.3-39.2-44.6l-3.6-3.8c-4.7-5-8.9-10.2-13-15.2c-9.5-11.7-17.8-21.8-25.9-22.7c-0.2,0-0.9-0.1-2.3,0
			c-4.9,0.1-18.8,1.4-42.8,10.9c-7.2,2.8-14.1,4.3-20.6,4.5c-9.7,0.2-16.5-2.5-20.4-4.8c-3.3,8.6-12.7,34-15.1,47
			C150.4,263.5,151.2,272.2,151.7,275.3z"/>
	</g>
	<g id="balgalleregesz">
		<path id="balgaller" class="st1" d="M83.2,269.2c-0.6-0.3-1.1-0.8-1.4-1.4c-0.4-0.8-0.4-1.7-0.1-2.5l33.2-91.7
			c0.6-1.6,2.4-2.5,4.1-1.9l65,22c0.8,0.2,1.5,0.9,1.9,1.6c0.4,0.8,0.4,1.7,0.1,2.5l-33.8,92.8c-0.6,1.7-2.5,2.5-4.1,1.9l-64.6-23.2
			l-0.1-0.1l0,0C83.3,269.3,83.2,269.3,83.2,269.2z M119.9,178.7l-31,85.7l58.4,20.9l31.6-86.7L119.9,178.7z"/>
		<path id="balgallerkitoltes" class="st2" d="M119.9,178.8l-31,85.7l58.4,20.9l31.6-86.7L119.9,178.8z"/>
	</g>
	<g id="jobbkezfelsoegesz">
		<path id="jobbkezfelso" class="st1" d="M344,192.9c-0.6-1.2-1.8-1.9-3.2-1.8c-1.8,0.1-6.5,0.5-12.5,0.6
			c-8.6,0.2-20.6,0.1-29.1-1.7c-3.5-0.8-7.6-1.8-12-2.8l-1-0.3c-14.7-3.6-25.4-6.1-29.9-5.2l-0.6,0.1c-5.8,1.2-10.8,2.3-21.5,13.8
			c-4.2,4.5-8.2,9.1-11.8,13.1l-0.3,0.3c-4.4,4.9-8.5,9.6-10,10.7c-1.7,1.3-2.3,3.3-1.5,5.4c1.6,4.5,11.1,10.1,23,9
			c13.5-1.3,23-10.6,30.8-19.3c0.4-0.5,1-0.7,1.7-0.7c0,0,0.1,0,0.1,0c6.2,0,18.5,11.4,26.7,19l2.6,2.4c6.6,6.1,13.8,13.8,20.3,20.6
			c5.4,5.8,10.1,10.7,13.5,13.8c6.7,6,12.8,7,16,7c0.1,0,0.3,0,0.4,0c1.6,0,2.5-0.3,2.5-0.3c1.2-0.3,2.2-1.3,2.4-2.6
			C350.9,271.9,357.8,221.9,344,192.9z M345.8,272c-2.2,0.1-7.2-0.3-13.2-5.7c-3.2-2.9-7.9-7.8-13.2-13.5
			c-6.4-6.8-13.7-14.6-20.5-20.8l-2.6-2.4c-9.8-9.1-21.9-20.4-30.1-20.4c-0.1,0-0.2,0-0.4,0c-2.1,0.1-3.8,0.9-5.1,2.3
			c-7.2,7.9-15.9,16.5-27.6,17.7c-10.6,1-17.7-4.2-18-5.4c1.9-1.5,5.7-5.8,11-11.7c3.5-3.9,7.5-8.5,11.7-13
			c9.6-10.3,13.5-11.1,18.9-12.3l0.6-0.1c3.7-0.8,17,2.5,27.7,5.1c4.7,1.2,9.3,2.3,13.1,3.1c14,3,36.4,1.7,41.9,1.3
			C351.4,221.5,346.8,264,345.8,272z"/>
		<path id="jobbkezfelsokitoltes" class="st2" d="M266,209.5c8.1-0.2,20.3,11.2,30.1,20.3l2.6,2.4c6.8,6.3,14.1,14,20.5,20.9
			c5.4,5.7,10,10.6,13.2,13.5c5.8,5.2,10.7,5.9,13.2,5.8l0,0c0.2,0,0.4,0,0.5,0c0.9-7.4,5.8-50.8-5.9-76.5
			c-1.9,0.1-6.4,0.4-11.9,0.5c-8.9,0.2-21.3,0.1-30.2-1.8c-3.8-0.8-8.4-1.9-13.2-3.1c-11.1-2.7-23.9-6-27.8-5.1l-0.6,0.1
			c-5.2,1.1-9.4,2-19,12.4c-4.2,4.5-8.2,9-11.7,13c-5.3,6-9.1,10.3-11,11.7c0,0,0.1,0.5,0.8,1.2c2.2,2.3,8.8,5.6,17.4,4.8
			c11.8-1.1,20.6-9.8,27.8-17.8C262.2,210.3,263.9,209.5,266,209.5z"/>
	</g>
	<g id="jobbgalleregesz">
		<path id="jobbgaller" class="st1" d="M345.8,288.6c-0.7,0-1.3-0.2-1.9-0.6c-0.7-0.5-1.2-1.3-1.3-2.1l-14-96.6
			c-0.3-1.7,0.9-3.3,2.7-3.6l67.7-11.2c0.8-0.1,1.7,0.1,2.4,0.6c0.7,0.5,1.2,1.3,1.3,2.1l13.9,97.8c0.2,1.7-1,3.4-2.7,3.6l-67.9,10
			l-0.2,0v0C345.9,288.6,345.9,288.6,345.8,288.6z M335.5,191.5l13.1,90.2l61.3-9l-13-91.3L335.5,191.5z"/>
		<path id="jobbgallerkitoltes" class="st2" d="M335.5,191.6l13.1,90.2l61.3-9l-13-91.3L335.5,191.6z"/>
	</g>
	<g id="jobbkezalso1egesz">
		<path id="jobbkezalso1kitoltes" class="st2" d="M186.8,268.9c0,0-0.1,0-0.1,0h0c-1.4,0-2.7,0.6-3.7,1.5l-17.3,15.7
			c-2.3,2.1-2.5,5.7-0.4,8l3.5,3.8c1,1,2.4,1.7,3.9,1.8c1.5,0.1,3-0.4,4.1-1.4l17.3-15.7c2.3-2.1,2.5-5.7,0.4-8l-3.5-3.8
			C189.9,269.6,188.4,268.9,186.8,268.9z"/>
		<path id="jobbkezalso1" class="st1" d="M173,306.2c-3.4,0-6.7-1.4-8.9-4l-3.5-3.8c-2.2-2.4-3.3-5.5-3.1-8.7
			c0.2-3.2,1.6-6.2,3.9-8.4l17.3-15.7c2.2-2,4.9-3.1,7.8-3.1c3.6-0.1,6.9,1.4,9.2,4l3.5,3.8c4.5,4.9,4.1,12.6-0.8,17.1l-17.3,15.7
			c-2.1,2-4.9,3.1-7.8,3.1C173.2,306.2,173.1,306.2,173,306.2z M173.2,303.2l0,1.2L173.2,303.2z M186.8,268.9c0,0-0.1,0-0.1,0h0
			c-1.4,0-2.7,0.6-3.7,1.5l-17.3,15.7c-2.3,2.1-2.5,5.7-0.4,8l3.5,3.8c1,1,2.4,1.7,3.9,1.8c1.5,0.1,3-0.4,4.1-1.4l17.3-15.7
			c2.3-2.1,2.5-5.7,0.4-8l-3.5-3.8C189.9,269.6,188.4,268.9,186.8,268.9z"/>
	</g>
	<g id="jobbkezalso2egesz">
		<path id="jobbkezalso2kitoltes" class="st2" d="M201.6,288.7c-1.4,0-2.7,0.6-3.7,1.5L180.6,306c-2.3,2.1-2.5,5.7-0.4,8l3.5,3.8
			c0.9,1,2.4,1.7,3.9,1.8c1.5,0.1,3-0.4,4.1-1.4l17.3-15.7c2.3-2.1,2.5-5.7,0.4-8l-3.5-3.8C204.8,289.4,203.2,288.7,201.6,288.7
			L201.6,288.7z"/>
		<path id="jobbkezalso2" class="st1" d="M187.9,326.1c-3.4,0-6.7-1.4-8.9-4l-3.5-3.8c-4.5-4.9-4.1-12.6,0.8-17.1l17.3-15.7
			c2.1-1.9,4.9-3.1,7.8-3.1c3.5-0.1,6.9,1.4,9.3,3.9l3.5,3.8c4.5,4.9,4.1,12.6-0.8,17.1L196,322.9c-2.2,1.9-4.9,3.1-7.8,3.1h0
			C188.1,326.1,188,326.1,187.9,326.1z M201.6,288.7c-1.4,0-2.7,0.6-3.7,1.5L180.6,306c-2.3,2.1-2.5,5.7-0.4,8l3.5,3.8
			c0.9,1,2.4,1.7,3.9,1.8c1.5,0.1,3-0.4,4.1-1.4l17.3-15.7c2.3-2.1,2.5-5.7,0.4-8l-3.5-3.8C204.8,289.4,203.2,288.7,201.6,288.7
			L201.6,288.7z"/>
	</g>
	<g id="jobbkezalso3egesz">
		<path id="jobbkezalso3kitoltes" class="st2" d="M222.6,303.7c-1.4,0-2.7,0.6-3.7,1.5l-17.3,15.7c-1.1,1-1.8,2.4-1.9,3.9
			c-0.1,1.5,0.5,3,1.5,4.1l3.5,3.8c0.9,1,2.4,1.7,3.9,1.8c1.5,0,3-0.4,4.1-1.4l17.3-15.7c1.1-1,1.8-2.4,1.8-3.9
			c0.1-1.5-0.4-3-1.5-4.1l-3.5-3.8C225.8,304.3,224.2,303.7,222.6,303.7L222.6,303.7z"/>
		<path id="jobbkezalso3" class="st1" d="M208.9,341c-3.4,0-6.6-1.4-9-4l-3.5-3.8c-2.2-2.4-3.3-5.5-3.1-8.7c0.1-3.2,1.6-6.2,3.9-8.4
			l17.3-15.7c2.2-2,4.9-3.1,7.8-3.1c3.5-0.1,6.9,1.4,9.2,4l3.5,3.8c4.5,4.9,4.1,12.6-0.8,17.1L217,337.8c-2.1,2-4.9,3.1-7.8,3.1h0
			C209.1,341,209,341,208.9,341z M222.6,303.7c-1.4,0-2.7,0.6-3.7,1.5l-17.3,15.7c-1.1,1-1.8,2.4-1.9,3.9c-0.1,1.5,0.5,3,1.5,4.1
			l3.5,3.8c0.9,1,2.4,1.7,3.9,1.8c1.5,0,3-0.4,4.1-1.4l17.3-15.7c1.1-1,1.8-2.4,1.8-3.9c0.1-1.5-0.4-3-1.5-4.1l-3.5-3.8
			C225.8,304.3,224.2,303.6,222.6,303.7L222.6,303.7z"/>
	</g>
	<g id="jobbkezalso4egesz">
		<path id="jobbkezalso4kitoltes" class="st2" d="M244.3,317.5c0,0-0.1,0-0.1,0h0c-1.4,0-2.7,0.5-3.7,1.5l-17.3,15.7
			c-1.1,1-1.8,2.4-1.8,3.9c-0.1,1.5,0.4,2.9,1.5,4.1l3.5,3.8c0.9,1,2.4,1.7,3.9,1.8c1.6,0,3-0.4,4.1-1.4l17.3-15.7
			c1.1-1,1.8-2.4,1.8-3.9c0.1-1.5-0.4-3-1.5-4.1l-3.5-3.8C247.4,318.2,245.9,317.5,244.3,317.5z"/>
		<path id="jobbkezalso4" class="st1" d="M230.4,354.8c-3.4,0-6.7-1.4-8.9-4L218,347c-2.2-2.4-3.3-5.5-3.1-8.7
			c0.2-3.2,1.6-6.2,3.9-8.4l17.3-15.7c2.2-2,4.9-3.1,7.8-3.1c3.4-0.1,6.9,1.4,9.2,4l3.5,3.8c2.2,2.4,3.3,5.5,3.1,8.7
			c-0.2,3.2-1.6,6.2-3.9,8.4l-17.3,15.7c-2.2,2-4.9,3.1-7.8,3.1h0C230.6,354.8,230.5,354.8,230.4,354.8z M244.3,317.5
			c0,0-0.1,0-0.1,0h0c-1.4,0-2.7,0.5-3.7,1.5l-17.3,15.7c-1.1,1-1.8,2.4-1.8,3.9c-0.1,1.5,0.4,2.9,1.5,4.1l3.5,3.8
			c0.9,1,2.4,1.7,3.9,1.8c1.6,0,3-0.4,4.1-1.4l17.3-15.7c1.1-1,1.8-2.4,1.8-3.9c0.1-1.5-0.4-3-1.5-4.1l-3.5-3.8
			C247.4,318.2,245.9,317.5,244.3,317.5z"/>
	</g>
</g>
<g id="GROUP_GmbH_no_stroke">
	<path d="M126.2,396.4c0-1.7-0.5-2.1-1.9-2.1h-1.9c-0.2,0-0.3-0.1-0.3-0.3v-1.1c0-0.3,0-0.4,0.3-0.4c0.6,0,2.7,0.1,5.8,0.1
		c3.3,0,4.8-0.1,5.4-0.1c0.3,0,0.4,0.1,0.4,0.3v1.1c0,0.2,0,0.4-0.3,0.4h-1.8c-0.8,0-1.4,0.3-1.4,1.7v6c0,0.6,0.2,1.1,0.2,1.5
		c0,0.4-0.3,0.6-0.7,0.7c-3.7,1.9-7.4,2.9-12.5,2.9c-4.1,0-9.7-1.5-12.8-5.2c-2.8-3.2-4.2-7.1-4.2-12.6c0-4.2,1.8-8.6,5.2-11.6
		c3.3-2.8,7.4-4.4,12.9-4.4c3.9,0,7.5,1.5,9,2.7c0.5,0.4,0.8,0.3,1.1,0l0.7-0.8c0.2-0.2,0.4-0.4,0.6-0.4c0.3,0,0.4,0.2,0.4,0.6
		l0.1,8.8c0,0.2,0,0.4-0.2,0.4l-0.8,0.1c-0.2,0-0.3-0.1-0.4-0.4c-0.4-1.3-1.1-3.4-2.7-5.4c-1.4-1.7-4.2-3.8-8.3-3.8
		c-3.2,0-6,0.8-8.8,3.7c-2.5,2.6-4,6.4-4,10.5c0,5.4,1.5,10.1,4.4,12.8c2.3,2.2,5.1,3.3,8.1,3.3c3.7,0,5.9-0.6,7.5-1.6
		c1.1-0.6,1.2-1.6,1.2-4V396.4z"/>
	<path d="M141.9,385.6c0-3.4,0-6.3,0-7.7c0-1.5-0.6-2.3-1.7-2.3h-1.8c-0.2,0-0.3-0.1-0.3-0.3v-1.1c0-0.2,0-0.3,0.3-0.3
		c0.4,0,1.8,0.1,5.7,0.1c2.6,0,6.8-0.1,7.7-0.1c3.8,0,6.8,1.1,8.6,2.8c1.5,1.5,2.4,3.5,2.4,5.2c0,5.7-2.6,7.9-8.5,9.2v0.1
		c1.1,0.4,1.7,1.2,2.1,1.7c0.5,0.6,3.8,5.3,4.2,5.9c0.2,0.5,3.2,4.6,4,5.3c1,0.7,2,0.8,3.3,0.8c0.3,0,0.4,0.2,0.4,0.4v1
		c0,0.3,0,0.4-0.4,0.4c-0.4,0-1.6-0.1-3.6-0.1c-1.3,0-3,0.1-3.7,0.1c-0.5-0.5-1.5-2-1.9-2.6c-0.4-0.5-2.8-4.9-3.1-5.3
		c-0.2-0.3-2.4-3.6-2.9-4.3c-1.2-1.4-2.3-2.7-4.9-2.7c-0.4,0-0.9,0-1.5,0.1v2.6c0,2.7,0,7.8,0.1,8.5c0.1,1,0.5,1.8,1.1,1.8h2.9
		c0.3,0,0.4,0.1,0.4,0.4v1c0,0.3,0,0.4-0.5,0.4c-0.5,0-1.7-0.1-6-0.1c-4.2,0-5.2,0.1-5.7,0.1c-0.4,0-0.4-0.1-0.4-0.4v-1.1
		c0-0.2,0-0.4,0.2-0.4h1.9c1,0,1.8-0.3,1.8-1.6c0.1-4.5,0.1-8.8,0.1-13.2V385.6z M146.1,390.2c0.7,0.1,1.2,0.2,2.1,0.2
		c8.3,0,9.9-5.7,9.9-7.7c0-2.1-1-4.1-2.3-5.2c-1.8-1.4-3.8-2.1-7.6-2.1c-0.6,0-1.1,0.1-1.6,0.4c-0.3,0.2-0.6,0.7-0.6,1.5V390.2z"/>
	<path d="M175.8,404.2c-3.3-2-6.7-6.9-6.7-13.6c0-2.8,0.7-7.1,4.3-11.4c4-4.9,8.6-5.8,12.4-5.8c2.9,0,6.6,0.6,10.3,3.6
		c3.3,2.9,6.3,7.4,6.3,13.7c0,3.3-1.1,6.8-3.4,10c-2.8,3.7-6.9,6.5-13.2,6.5C183.4,407.2,179.4,406.4,175.8,404.2z M197.8,391
		c0-10-7.1-15.9-12.2-15.9c-0.7,0-3.8-0.6-7.2,2.7c-3.1,2.9-4.6,7.6-4.6,11.3c0,12.1,8.4,16.3,12.3,16.3
		C196.1,405.4,197.8,395.1,197.8,391z"/>
	<path d="M215.7,406.2c-3.1-1.2-4.7-3.3-5.5-6.1c-0.6-2.1-0.7-5.1-0.7-11.1V378c0-1.6-0.3-2.3-1.7-2.3h-2.2c-0.3,0-0.3-0.1-0.3-0.4
		v-1c0-0.3,0-0.4,0.4-0.4c0.5,0,2.7,0.1,6.3,0.1c3.6,0,5.8-0.1,6.3-0.1c0.4,0,0.4,0.1,0.4,0.3v1.2c0,0.2,0,0.3-0.4,0.3H216
		c-1.3,0-2.1,0.9-2.2,1.9c0,0.4-0.1,3.6-0.1,6v3c0,2.4,0.2,8.3,0.2,9.7c0,2.1,0.4,4.3,1.5,5.8c1.7,2.5,4.6,3.3,7.3,3.3
		c2.6,0,5.3-0.9,6.9-2.5c1.8-1.9,2.4-4.7,2.4-8.1V385c0-3.5-0.1-6.1-0.2-7.3c-0.1-1.2-0.9-2-2.1-2h-2c-0.3,0-0.3-0.1-0.3-0.4v-1.1
		c0-0.2,0-0.3,0.3-0.3c0.5,0,2.6,0.1,5.6,0.1c3.2,0,4.6-0.1,5-0.1c0.4,0,0.5,0.2,0.5,0.3v1c0,0.3,0,0.5-0.3,0.5h-1.9
		c-1.7,0-1.8,1.3-2,1.8c-0.1,0.5-0.1,7-0.1,7.6c0,0.6-0.1,8.7-0.2,10.4c-0.3,3.8-1.3,6.6-3.8,8.8c-1.8,1.7-4.6,2.8-8.6,2.8
		C219.5,407.2,217.2,406.8,215.7,406.2z"/>
	<path d="M249.4,394.3c0,2.2,0,8.4,0.1,9c0.1,1,0.5,1.5,1.5,1.5h2.9c0.3,0,0.4,0.1,0.4,0.3v1.1c0,0.2,0,0.4-0.4,0.4
		c-0.6,0-2.1-0.1-6.4-0.1c-4,0-5.8,0.1-6.3,0.1c-0.3,0-0.4-0.1-0.4-0.3v-1.1c0-0.2,0-0.3,0.3-0.3h2c1.6,0,1.9-0.2,2-1.5
		c0-0.5,0.2-7.6,0.2-12.9v-5.3c0-3,0-8-0.1-8.5c-0.1-0.9-0.5-1-1.8-1h-2.6c-0.2,0-0.3-0.1-0.3-0.4v-1.1c0-0.2,0-0.3,0.3-0.3
		c0.5,0,2.2,0.1,6.5,0.1c0.8,0,3.5-0.1,5-0.1c5.2,0,7.6,0.5,10.2,2.3c2.2,1.5,3.5,4,3.5,6.6c0,5.8-4.4,9.3-11.6,9.3
		c-1.7,0-3.5,0-5-0.2V394.3z M249.4,390.3c0.9,0.3,2.4,0.4,4.2,0.4c2.8,0,5.3-1.5,6.5-3.1c1-1.3,1.2-3,1.2-4.6c0-6-5.6-7.6-8.3-7.6
		c-0.8,0-2.7,0-3.6,0.3V390.3z"/>
	<path d="M306.6,396.4c0-1.7-0.5-2.1-1.9-2.1h-1.9c-0.2,0-0.3-0.1-0.3-0.3v-1.1c0-0.3,0-0.4,0.3-0.4c0.6,0,2.7,0.1,5.8,0.1
		c3.3,0,4.8-0.1,5.4-0.1c0.3,0,0.4,0.1,0.4,0.3v1.1c0,0.2,0,0.4-0.3,0.4h-1.8c-0.8,0-1.4,0.3-1.4,1.7v6c0,0.6,0.2,1.1,0.2,1.5
		c0,0.4-0.3,0.6-0.7,0.7c-3.7,1.9-7.4,2.9-12.5,2.9c-4.1,0-9.7-1.5-12.8-5.2c-2.8-3.2-4.2-7.1-4.2-12.6c0-4.2,1.8-8.6,5.2-11.6
		c3.3-2.8,7.4-4.4,12.9-4.4c3.9,0,7.5,1.5,9,2.7c0.5,0.4,0.8,0.3,1.1,0l0.7-0.8c0.2-0.2,0.4-0.4,0.6-0.4c0.3,0,0.4,0.2,0.4,0.6
		l0.1,8.8c0,0.2,0,0.4-0.2,0.4l-0.8,0.1c-0.2,0-0.3-0.1-0.4-0.4c-0.4-1.3-1.1-3.4-2.8-5.4c-1.4-1.7-4.2-3.8-8.3-3.8
		c-3.2,0-6,0.8-8.8,3.7c-2.5,2.6-4,6.4-4,10.5c0,5.4,1.5,10.1,4.4,12.8c2.3,2.2,5.1,3.3,8.1,3.3c3.7,0,5.9-0.6,7.5-1.6
		c1.1-0.6,1.2-1.6,1.2-4V396.4z"/>
	<path d="M333.1,394.8c0-3.4-0.6-4.3-1.4-4.9c-0.6-0.6-1.9-0.8-2.9-0.8c-1.2,0-3.1,0.6-4.4,2.7c-0.6,0.9-0.6,1.8-0.6,3.1v9.1
		c0,0.7,0.3,1.2,0.9,1.2h1.6c0.4,0,0.5,0.1,0.5,0.4v0.7c0,0.3,0,0.5-0.4,0.5c-0.4,0-1.6-0.1-4.2-0.1c-2.4,0-3.9,0.1-4.3,0.1
		c-0.3,0-0.4-0.1-0.4-0.4v-0.8c0-0.4,0.1-0.4,0.6-0.4h1.6c0.4,0,0.6-0.3,0.7-1.1c0-0.8,0-1.6,0-2.4v-8.2c0-0.9-0.2-1.7-1.3-2.3
		l-1-0.5c-0.2-0.1-0.3-0.2-0.3-0.4v-0.4c0-0.1,0.2-0.3,0.3-0.4l4-2.1c0.4-0.2,0.7-0.3,0.9-0.3c0.3,0,0.4,0.3,0.4,0.6l0.2,2.7h0.1
		c1.4-1.9,4.1-3.5,6.7-3.5c2.4,0,4.2,1.4,5.2,3.5h0.2c1.4-1.8,4-3.5,6.7-3.5c1.6,0,3,0.3,4.1,1.4c1.1,1.1,2.2,2.1,2.2,5.6v10.2
		c0,0.7,0.4,0.9,1,0.9h1.2c0.4,0,0.5,0.1,0.5,0.4v0.8c0,0.3-0.1,0.5-0.3,0.5c-0.3,0-1.6-0.1-3.8-0.1c-2.3,0-3.9,0.1-4.3,0.1
		c-0.3,0-0.4-0.1-0.4-0.5v-0.8c0-0.3,0.1-0.4,0.6-0.4h1.1c0.5,0,0.9-0.2,0.9-0.9c0.1-1.1,0.1-2.7,0.1-3.7v-6.8
		c0-1.5-0.3-2.8-1.3-3.7c-0.8-0.6-2-1-3.4-1c-1.4,0-3.3,1.1-4,2.4c-0.7,1.3-0.6,2.6-0.6,4.6v7.9c0,0.6,0.2,1.1,0.9,1.1h1.6
		c0.4,0,0.5,0.1,0.5,0.4v0.7c0,0.4-0.1,0.5-0.3,0.5c-0.3,0-1.5-0.1-4.1-0.1c-2.5,0-4,0.1-4.3,0.1c-0.2,0-0.3-0.1-0.3-0.5v-0.7
		c0-0.4,0-0.5,0.5-0.5h1.3c0.7,0,1-0.2,1-0.8V394.8z"/>
	<path d="M356.2,381.8c0-3.1-0.5-3.7-2.2-4.3l-0.5-0.1c-0.5-0.1-0.6-0.2-0.6-0.4v-0.4c0-0.1,0.1-0.2,0.4-0.4
		c1.3-0.6,3.7-1.8,4.9-2.5c0.3-0.2,0.7-0.4,1-0.4c0.3,0,0.4,0.2,0.4,0.8c0,0.4,0,5.6,0,9.7v5.3c1.5-1.4,4.1-2.3,6.3-2.3
		c4,0,8.4,3.3,8.4,9.8c0,5.4-4.3,10.4-9.5,10.4c-2.6,0-4.4-0.6-5.4-1.2l-1.8,1c-0.2,0.1-0.3,0.2-0.6,0.1l-0.6-0.1
		c-0.2,0-0.2-0.1-0.2-0.4c0.1-0.6,0.1-4.4,0.1-7.8V381.8z M359.5,396.6c0,3.8,0.1,5.2,0.7,6.6c0.5,1.1,2.4,2.3,4.4,2.3
		c2.8,0,6.1-1.9,6.1-7.9c0-4.4-2.3-8.7-6.8-8.7c-1.7,0-3.3,0.6-4.4,1.6V396.6z"/>
	<path d="M382.2,388.4c0-2.8-0.1-9-0.1-9.8c0-2.3-0.3-3-2-3h-2.2c-0.2,0-0.3-0.1-0.3-0.4v-1.1c0-0.2,0.1-0.3,0.4-0.3
		c0.9,0,2.4,0.1,6.4,0.1c3.6,0,5.2-0.1,6.1-0.1c0.3,0,0.5,0,0.5,0.2v1.2c0,0.3-0.1,0.4-0.4,0.4h-2.3c-1.6,0-1.8,0.8-1.8,2.6
		c0,0.6-0.1,6.7-0.1,9.3v0.8c0,0.2,0.1,0.4,0.6,0.4h17c0.7,0,0.9-0.1,0.9-0.7v-0.5c0-2.6-0.1-9-0.1-9.5c0-1.5-0.2-2.3-1.5-2.3h-2.4
		c-0.2,0-0.3-0.1-0.3-0.3v-1.2c0-0.2,0-0.3,0.3-0.3c1,0,2.9,0.1,6,0.1c3.1,0,5-0.1,5.9-0.1c0.3,0,0.4,0.1,0.4,0.4v1.1
		c0,0.3-0.1,0.3-0.4,0.3h-2.1c-1.3,0-1.5,0.8-1.5,2.4c0,0.6-0.1,8.4-0.1,10.1v1.6c0,1.5,0.1,10.2,0.1,12.8c0,1.6,0.5,2.3,1.8,2.3h2
		c0.3,0,0.4,0.1,0.4,0.3v1.1c0,0.3-0.1,0.4-0.4,0.4c-0.9,0-2.4-0.1-5.8-0.1c-4,0-5.5,0.1-6.8,0.1c-0.2,0-0.3-0.1-0.3-0.3v-1.1
		c0-0.2,0.1-0.3,0.4-0.3h2.9c1.1,0,1.2-0.9,1.2-2.1c0-2.2,0.1-9.5,0.1-11.2v-0.6c0-0.5-0.2-0.6-1-0.6H387c-0.5,0-0.6,0.1-0.6,0.5v1
		c0,1.2,0,8.3,0.1,11.5c0,1.1,0.5,1.6,1.5,1.6h2.2c0.3,0,0.4,0.1,0.4,0.3v1.1c0,0.2-0.1,0.3-0.4,0.3c-0.9,0-2.5-0.1-5.8-0.1
		c-3.9,0-5.3,0.1-6.4,0.1c-0.2,0-0.3-0.1-0.3-0.3v-1.2c0-0.2,0.1-0.3,0.3-0.3h2.7c1.1,0,1.3-1.1,1.3-2.2c0-2.2,0.1-11,0.1-12.2
		V388.4z"/>
</g>
<g id="azz_stroke">
	<path d="M125.9,130.4c-1.2,2.9-7.6,20.6-8.1,23c-0.1,0.8-0.3,2-0.3,2.6c0,1.6,1.4,2.6,4,2.6h5.5c0.8,0,1.2,0.2,1.2,0.8v2.7
		c0,0.8-0.3,1-0.9,1c-1.6,0-6.4-0.3-13.3-0.3c-8.5,0-11.1,0.3-12.7,0.3c-0.6,0-0.8-0.2-0.8-0.9v-2.8c0-0.6,0.5-0.8,0.9-0.8h4.1
		c3.5,0,5.1-1.6,6.7-5.4c0.8-1.9,9.3-23.4,12.7-32.9c0.8-2.3,10.2-27.3,11.3-30.5c0.3-1.2,0.9-2.7,0.1-4c-0.3-0.5-0.8-1-0.8-1.5
		c0-0.3,0.2-0.8,1-1c3.3-0.7,8.4-4.2,9.7-5.8c0.6-0.6,0.9-1,1.5-1c0.7,0,0.9,0.7,1.3,2c2.2,7.3,11.3,33.4,13.5,40.8
		c2.7,9.1,10.2,30.7,11.9,34.1c2,3.8,5,5.2,7.9,5.2h3.8c0.7,0,0.9,0.3,0.9,0.8v2.9c0,0.6-0.3,0.8-1.2,0.8c-2.1,0-4.5-0.3-14-0.3
		c-9.7,0-13.7,0.3-16.4,0.3c-0.6,0-0.9-0.3-0.9-1v-2.7c0-0.7,0.3-0.8,1-0.8h2.9c3.3,0,4.3-1.2,3.5-4.4c-0.9-4.2-5.7-19.1-7.3-23.7
		H125.9z M153.2,126.2c-1-3.5-10.5-32.6-11.1-34.3c-0.3-0.8-0.6-1.6-0.9-1.6c-0.5,0-0.9,0.8-1.3,1.7c-0.6,1.5-11.6,31.3-12.4,34.2
		H153.2z"/>
	<path d="M194.8,157.3c0-2,1.4-6.5,7.2-6.5c3.4,0,6.5,2.7,6.5,7c0,3.8-2.9,6.4-6.5,6.4C199.4,164.2,194.8,162.8,194.8,157.3z"/>
	<path d="M223.6,162.8c-0.9,0-2.2,0-2.2-0.9c0-0.7,0.1-1.6,0.7-2.2c6-7.1,54.2-74.1,55-75.5h-31.5c-1.6,0-3,0.6-4.7,1.9
		c-2.4,2-12,13.7-14.2,17.3c-0.3,0.5-0.7,0.3-1,0.1l-1.5-0.7c-0.3-0.2-0.5-0.3-0.2-1l7.3-20.9c0.3-1,0.8-1.3,1.4-1.3
		c0.5,0,1.4,0.1,2.3,0.2c5.5,0.7,21.9,0.7,31.5,0.7c4.2,0,8.4-0.2,12.6-0.3c4.2-0.2,8.3-0.3,12.3-0.3c1.9,0,2.1,1.3,0.8,2.8
		c-2.2,2.6-53.4,72.5-55.6,76.1h40.9c4.3-2.7,14.8-15.2,16.3-17.2c0.4-0.3,0.6-0.5,1-0.2l1.6,0.9c0.3,0.2,0.5,0.6,0.2,1
		c-1.5,2.9-7.3,17-8.3,20.1c-0.2,0.8-0.9,1.3-1.5,1.3c-0.5,0-1.4-0.2-2.9-0.5c-6.4-0.8-24.9-1.3-35.9-1.3H223.6z"/>
	<path d="M306,157.3c0-2,1.4-6.5,7.2-6.5c3.4,0,6.5,2.7,6.5,7c0,3.8-2.9,6.4-6.5,6.4C310.6,164.2,306,162.8,306,157.3z"/>
	<path d="M334.8,162.8c-0.9,0-2.2,0-2.2-0.9c0-0.7,0.1-1.6,0.7-2.2c6-7.1,54.2-74.1,55-75.5h-31.5c-1.6,0-3,0.6-4.7,1.9
		c-2.4,2-12,13.7-14.2,17.3c-0.4,0.5-0.7,0.3-1,0.1l-1.5-0.7c-0.3-0.2-0.5-0.3-0.2-1l7.3-20.9c0.3-1,0.8-1.3,1.4-1.3
		c0.5,0,1.4,0.1,2.3,0.2c5.5,0.7,21.9,0.7,31.5,0.7c4.2,0,8.4-0.2,12.6-0.3c4.2-0.2,8.3-0.3,12.3-0.3c1.9,0,2.1,1.3,0.8,2.8
		c-2.2,2.6-53.4,72.5-55.6,76.1h40.9c4.3-2.7,14.8-15.2,16.3-17.2c0.4-0.3,0.6-0.5,1-0.2l1.6,0.9c0.3,0.2,0.5,0.6,0.2,1
		c-1.5,2.9-7.3,17-8.3,20.1c-0.2,0.8-0.9,1.3-1.5,1.3c-0.5,0-1.4-0.2-2.9-0.5c-6.4-0.8-24.9-1.3-35.9-1.3H334.8z"/>
	<path d="M417.2,157.3c0-2,1.4-6.5,7.2-6.5c3.4,0,6.5,2.7,6.5,7c0,3.8-2.9,6.4-6.5,6.4C421.8,164.2,417.2,162.8,417.2,157.3z"/>
</g>
</svg>
